<?xml version="1.0" encoding="utf-8"?>
<!-- Generator: Adobe Illustrator 22.0.1, SVG Export Plug-In . SVG Version: 6.00 Build 0)  -->
<svg version="1.1" id="Layer_1" xmlns="http://www.w3.org/2000/svg" xmlns:xlink="http://www.w3.org/1999/xlink" x="0px" y="0px"
	 viewBox="0 0 60 60" style="enable-background:new 0 0 60 60;" xml:space="preserve">
<style type="text/css">
	.st0{fill:#FFFFFF;}
	.st1{display:none;}
	.st2{display:inline;}
	.st3{fill:#010101;}
</style>
<g>
	<g>
		<g>
			<path class="st0" d="M39.8,34.9l-7.7-5.8V17.4c0-1.2-1-2.1-2.1-2.1s-2.1,1-2.1,2.1v12.8c0,0.7,0.3,1.3,0.9,1.7l8.5,6.4
				c0.4,0.3,0.8,0.4,1.3,0.4c0.6,0,1.3-0.3,1.7-0.9C40.9,36.9,40.7,35.6,39.8,34.9z"/>
		</g>
	</g>
	<g>
		<g>
			<path class="st0" d="M30,2.5C14.8,2.5,2.5,14.8,2.5,30S14.8,57.5,30,57.5S57.5,45.2,57.5,30S45.2,2.5,30,2.5z M30,53.2
				C17.2,53.2,6.8,42.8,6.8,30S17.2,6.8,30,6.8c12.8,0,23.2,10.4,23.2,23.2S42.8,53.2,30,53.2z"/>
		</g>
	</g>
</g>
<g class="st1">
	<g class="st2">
		<path class="st3" d="M53.9,7.9H6.1C3.3,7.9,1,10.2,1,13v34c0,2.8,2.3,5.1,5.1,5.1h47.8c2.8,0,5.1-2.3,5.1-5.1V13
			C59,10.2,56.7,7.9,53.9,7.9z M53.2,11.3L30.1,34.4L6.8,11.3H53.2z M4.4,46.3V13.7l16.4,16.2L4.4,46.3z M6.8,48.7l16.4-16.4
			l5.7,5.7c0.7,0.7,1.7,0.7,2.4,0l5.6-5.6l16.3,16.3H6.8z M55.6,46.3L39.3,30l16.3-16.3V46.3z"/>
	</g>
</g>
<g class="st1">
	<g class="st2">
		<path class="st3" d="M54.1,39.3c-3.6,0-7-0.6-10.3-1.6c-1.6-0.6-3.4-0.1-4.5,1l-6.5,4.9c-7.5-4-12.3-8.8-16.3-16.3l4.8-6.4
			c1.2-1.2,1.6-3,1.1-4.6c-1.1-3.3-1.7-6.8-1.7-10.4c0-2.5-2-4.6-4.6-4.6H5.6C3,1.3,1,3.4,1,5.9C1,35.2,24.8,59,54.1,59
			c2.5,0,4.6-2,4.6-4.6V43.9C58.7,41.3,56.6,39.3,54.1,39.3z M55.6,54.4c0,0.8-0.7,1.5-1.5,1.5C26.5,56,4,33.5,4,5.9
			C4,5,4.7,4.4,5.6,4.4h10.6c0.8,0,1.5,0.7,1.5,1.5c0,3.9,0.6,7.7,1.8,11.3c0.2,0.6,0,1.2-0.5,1.7l-5.5,7.3
			c-0.3,0.5-0.4,1.1-0.1,1.6c4.5,8.8,10,14.3,18.9,18.9c0.5,0.3,1.1,0.2,1.6-0.1l7.5-5.7c0.4-0.4,1-0.5,1.5-0.4
			c3.6,1.2,7.4,1.8,11.3,1.8c0.8,0,1.5,0.7,1.5,1.5L55.6,54.4L55.6,54.4z"/>
	</g>
</g>
<g class="st1">
	<g class="st2">
		<g>
			<path class="st3" d="M30,0.8C18.7,0.8,9.5,10,9.5,21.3c0,3.8,1.1,7.6,3.1,10.8l16.3,26.2c0.3,0.5,0.9,0.8,1.5,0.8c0,0,0,0,0,0
				c0.6,0,1.1-0.3,1.5-0.8l15.9-26.5c1.9-3.2,2.9-6.8,2.9-10.5C50.5,10,41.3,0.8,30,0.8z M44.7,30.1L30.3,54.2L15.5,30.3
				c-1.7-2.7-2.6-5.8-2.6-9c0-9.4,7.7-17.1,17.1-17.1s17.1,7.7,17.1,17.1C47.1,24.4,46.3,27.5,44.7,30.1z"/>
		</g>
	</g>
	<g class="st2">
		<g>
			<path class="st3" d="M30,11.1c-5.7,0-10.3,4.6-10.3,10.3c0,5.6,4.5,10.3,10.3,10.3c5.8,0,10.3-4.7,10.3-10.3
				C40.3,15.7,35.7,11.1,30,11.1z M30,28.2c-3.8,0-6.9-3.1-6.9-6.9c0-3.8,3.1-6.9,6.9-6.9s6.8,3.1,6.8,6.9
				C36.8,25.1,33.9,28.2,30,28.2z"/>
		</g>
	</g>
</g>
</svg>
