<svg xmlns="http://www.w3.org/2000/svg" width="97.676" height="99.644" viewBox="0 0 97.676 99.644">
  <g id="nutrition" transform="translate(-4.836)">
    <g id="Group_44" data-name="Group 44" transform="translate(11.872 8.521)">
      <g id="Group_43" data-name="Group 43">
        <path id="Path_117" data-name="Path 117" d="M80.715,42.326a1.619,1.619,0,0,0-1.192-.453,42.386,42.386,0,0,0-8.465,1.193l.78,3.161a39.016,39.016,0,0,1,6.121-1V76.018H43a39.029,39.029,0,0,1,1.758-5.927l-3.036-1.172a42.194,42.194,0,0,0-2.289,8.467,1.629,1.629,0,0,0,1.607,1.888H79.587a1.627,1.627,0,0,0,1.628-1.628V43.5A1.624,1.624,0,0,0,80.715,42.326Z" transform="translate(-39.413 -41.872)" fill="#d6172c"/>
      </g>
    </g>
    <g id="Group_46" data-name="Group 46" transform="translate(56.93 8.783)">
      <g id="Group_45" data-name="Group 45">
        <path id="Path_118" data-name="Path 118" d="M291.439,59.786l-2.6,1.955a38.718,38.718,0,0,1,7.816,23.442c0,.519-.013,1.058-.039,1.628h-32.52V46.665a38.878,38.878,0,0,1,7.563,2.071l1.174-3.036a42.1,42.1,0,0,0-10.17-2.528,1.63,1.63,0,0,0-1.823,1.617V88.439a1.627,1.627,0,0,0,1.628,1.628h35.673a1.63,1.63,0,0,0,1.623-1.5c.1-1.237.147-2.344.147-3.386A41.959,41.959,0,0,0,291.439,59.786Z" transform="translate(-260.836 -43.16)" fill="#d6172c"/>
      </g>
    </g>
    <g id="Group_48" data-name="Group 48" transform="translate(11.348 49.178)">
      <g id="Group_47" data-name="Group 47">
        <path id="Path_119" data-name="Path 119" d="M77.534,241.672H38.464a1.627,1.627,0,0,0-1.628,1.628,42.65,42.65,0,0,0,.539,6.772l3.215-.518a38.992,38.992,0,0,1-.464-4.627h35.78v37.3a38.917,38.917,0,0,1-9.235-1.9l-1.04,3.087a42.2,42.2,0,0,0,11.838,2.175l.063,0a1.63,1.63,0,0,0,1.63-1.628V243.3A1.627,1.627,0,0,0,77.534,241.672Z" transform="translate(-36.836 -241.672)" fill="#d6172c"/>
      </g>
    </g>
    <g id="Group_50" data-name="Group 50" transform="translate(56.93 58.946)">
      <g id="Group_49" data-name="Group 49">
        <path id="Path_120" data-name="Path 120" d="M298.369,290.3a1.614,1.614,0,0,0-1.278-.625H262.464a1.627,1.627,0,0,0-1.628,1.628v30.628a1.627,1.627,0,0,0,1.628,1.628,1.563,1.563,0,0,0,.194-.011,42.385,42.385,0,0,0,5.079-.925l-.78-3.161c-.944.233-1.9.431-2.867.593V292.928h30.862q-.168.557-.355,1.109l3.085,1.04c.378-1.12.711-2.26.987-3.386A1.624,1.624,0,0,0,298.369,290.3Z" transform="translate(-260.836 -289.672)" fill="#d6172c"/>
      </g>
    </g>
    <g id="Group_52" data-name="Group 52" transform="translate(4.836)">
      <g id="Group_51" data-name="Group 51" transform="translate(0)">
        <path id="Path_121" data-name="Path 121" d="M41.946,15.978a.006.006,0,0,0,0,0,12.906,12.906,0,0,0-7.8-2.613,12.118,12.118,0,0,0-1.5.1,14.729,14.729,0,0,0-7.7-7.176,13.044,13.044,0,0,1,4.881-3.241L28.682,0A16.282,16.282,0,0,0,22.53,4.1a15.544,15.544,0,0,0-1.06,1.271,14.644,14.644,0,1,0-1.983,29.153,14.59,14.59,0,0,0,4.049-.581,13.039,13.039,0,0,0,7.777,5.149l0,0A12.957,12.957,0,0,0,42.61,36.269l0,0a13,13,0,0,0-.667-20.287ZM19.487,31.271a11.4,11.4,0,1,1,0-22.791c.044,0,.085.007.129.007A16.562,16.562,0,0,0,18.429,12.3l3.2.584a13.259,13.259,0,0,1,1.346-3.855,11.435,11.435,0,0,1,7.169,6.85q.173.464.306.933c.011.041.021.081.031.122.077.283.143.567.2.853.023.125.039.252.059.378.033.212.067.423.088.637.033.352.054.71.054,1.071a11.441,11.441,0,0,1-11.4,11.4Zm10.974,4.161a9.82,9.82,0,0,1-3.809-2.79,14.747,14.747,0,0,0,5.714-5.786Zm13.31-10.673H37.395l3.821-5.092A9.623,9.623,0,0,1,43.771,24.759ZM38.611,17.71l-1.423,1.9L34.342,23.4l-.462-.833v0c.081-.436.148-.877.189-1.327s.07-.912.07-1.363a14.726,14.726,0,0,0-.091-1.594c-.008-.077-.024-.151-.034-.228q-.088-.706-.241-1.39a.337.337,0,0,0-.007-.036A9.455,9.455,0,0,1,38.611,17.71ZM33.639,36.142l1.382-6.222,4.145,4.835A9.731,9.731,0,0,1,33.639,36.142Zm8-3.508-3.957-4.618h6.09A9.748,9.748,0,0,1,41.637,32.633Z" transform="translate(-4.836)" fill="#d6172c"/>
      </g>
    </g>
    <g id="Group_54" data-name="Group 54" transform="translate(65.069 31.271)">
      <g id="Group_53" data-name="Group 53">
        <rect id="Rectangle_22" data-name="Rectangle 22" width="3.256" height="3.256" fill="#d6172c"/>
      </g>
    </g>
    <g id="Group_56" data-name="Group 56" transform="translate(71.581 34.527)">
      <g id="Group_55" data-name="Group 55">
        <rect id="Rectangle_23" data-name="Rectangle 23" width="3.256" height="3.256" fill="#d6172c"/>
      </g>
    </g>
    <g id="Group_58" data-name="Group 58" transform="translate(78.093 45.922)">
      <g id="Group_57" data-name="Group 57">
        <rect id="Rectangle_24" data-name="Rectangle 24" width="3.256" height="3.256" fill="#d6172c"/>
      </g>
    </g>
    <g id="Group_60" data-name="Group 60" transform="translate(65.069 44.294)">
      <g id="Group_59" data-name="Group 59">
        <rect id="Rectangle_25" data-name="Rectangle 25" width="3.256" height="3.256" fill="#d6172c"/>
      </g>
    </g>
    <g id="Group_62" data-name="Group 62" transform="translate(63.441 37.783)">
      <g id="Group_61" data-name="Group 61">
        <rect id="Rectangle_26" data-name="Rectangle 26" width="3.256" height="3.256" fill="#d6172c"/>
      </g>
    </g>
    <g id="Group_64" data-name="Group 64" transform="translate(86.232 39.41)">
      <g id="Group_63" data-name="Group 63">
        <rect id="Rectangle_27" data-name="Rectangle 27" width="3.256" height="3.256" fill="#d6172c"/>
      </g>
    </g>
    <g id="Group_66" data-name="Group 66" transform="translate(78.093 32.899)">
      <g id="Group_65" data-name="Group 65">
        <rect id="Rectangle_28" data-name="Rectangle 28" width="3.256" height="3.256" fill="#d6172c"/>
      </g>
    </g>
    <g id="Group_68" data-name="Group 68" transform="translate(71.581 41.038)">
      <g id="Group_67" data-name="Group 67">
        <rect id="Rectangle_29" data-name="Rectangle 29" width="3.256" height="3.256" fill="#d6172c"/>
      </g>
    </g>
    <g id="Group_70" data-name="Group 70" transform="translate(78.093 39.41)">
      <g id="Group_69" data-name="Group 69">
        <rect id="Rectangle_30" data-name="Rectangle 30" width="3.256" height="3.256" fill="#d6172c"/>
      </g>
    </g>
    <g id="Group_72" data-name="Group 72" transform="translate(71.22 1.62)">
      <g id="Group_71" data-name="Group 71">
        <path id="Path_122" data-name="Path 122" d="M362.354,8.31a25.7,25.7,0,0,0-11.92,3,6.5,6.5,0,0,0-1.337-2c-2.212-2.211-6.29-1.068-6.749-.931a1.632,1.632,0,0,0-1.091,1.089c-.137.457-1.281,4.535.933,6.749a6.735,6.735,0,0,0,.814.676,30.355,30.355,0,0,0-2.925,3.627,6.561,6.561,0,0,0-.749-.931c-2.146-2.144-6.152-1.41-6.6-1.317a1.634,1.634,0,0,0-1.249,1.166c-.22.8-1.2,4.91.944,7.059a6.149,6.149,0,0,0,3.778,1.8,29.736,29.736,0,0,0-1.522,9.318h3.256a25.7,25.7,0,0,1,.951-6.815,6.329,6.329,0,0,0,3.119.812c3.113,0,5.257-3.669,5.491-4.089a1.636,1.636,0,0,0,0-1.59c-.205-.366-1.869-3.215-4.363-3.927a27.287,27.287,0,0,1,3.337-3.793,5.747,5.747,0,0,0,5.3,3.122c3.113,0,5.257-3.669,5.491-4.089a1.636,1.636,0,0,0,0-1.59,10.92,10.92,0,0,0-2.282-2.756,21.568,21.568,0,0,1,7.373-1.332Zm-24.422,15.78c-.13.256-.239.523-.363.783a1.633,1.633,0,0,0-.275.086,2.465,2.465,0,0,1-2.567-.767c-.438-.438-.464-1.722-.309-2.851a3.916,3.916,0,0,1,2.611.549,2.828,2.828,0,0,1,.9,2.116C337.927,24.034,337.934,24.061,337.932,24.089Zm6.193,2.637c-.633.829-1.493,1.628-2.12,1.628a3.023,3.023,0,0,1-2.046-.746c.337-.809.715-1.6,1.125-2.367a3.2,3.2,0,0,1,.921-.143C342.633,25.1,343.491,25.9,344.125,26.726Zm1.39-12.144a3.027,3.027,0,0,1-1.021-.667,3.562,3.562,0,0,1-.311-2.611c.956-.142,2.152-.153,2.613.308A3.146,3.146,0,0,1,347.608,13Q346.527,13.739,345.515,14.582Zm6.258,3.5c-1.3,0-2.442-.76-2.445-1.535,0-.029.026-.163.029-.192a1.591,1.591,0,0,0-.021-.482c.355-.249.716-.487,1.081-.718a3.1,3.1,0,0,1,1.356-.329c.628,0,1.486.8,2.12,1.628C353.259,17.278,352.4,18.077,351.773,18.077Z" transform="translate(-331.063 -7.961)" fill="#d6172c"/>
      </g>
    </g>
    <g id="Group_74" data-name="Group 74" transform="translate(4.836 57.318)">
      <g id="Group_73" data-name="Group 73" transform="translate(0)">
        <path id="Path_123" data-name="Path 123" d="M41.933,290.256a6.362,6.362,0,0,0,.345-2.072,6.5,6.5,0,0,0-11.558-4.089,6.5,6.5,0,0,0-4.524-.633,8.044,8.044,0,0,0-5.081-1.789,8.149,8.149,0,0,0-8.14,8.14,6.518,6.518,0,0,0-6.512,6.512,6.424,6.424,0,0,0,.788,3.1,6.5,6.5,0,1,0,9.662,8.418l2.636,5.271,1.589,9.527A1.627,1.627,0,0,0,22.743,324H35.767a1.627,1.627,0,0,0,1.628-1.628v-9.632L39,303.1a1.662,1.662,0,0,0,.023-.269c4.488,0,8.14-2.921,8.14-6.512C47.162,293.562,45.005,291.192,41.933,290.256Zm-2.911,9.323a6.3,6.3,0,0,1-1.3-.153,1.629,1.629,0,0,0-1.958,1.594V302.7l-1.605,9.634a1.627,1.627,0,0,0-.023.267v8.14H24.122l-1.4-8.408a1.66,1.66,0,0,0-.15-.461l-4.884-9.768a1.631,1.631,0,0,0-1.457-.9h-.326a1.628,1.628,0,0,0-1.527,2.191,3.091,3.091,0,0,1,.225,1.065,3.256,3.256,0,1,1-4.376-3.041,1.628,1.628,0,0,0,.544-2.722,3.213,3.213,0,0,1-1.052-2.377,3.259,3.259,0,0,1,3.256-3.256,3.149,3.149,0,0,1,1.076.215,1.629,1.629,0,0,0,2.18-1.532v-1.939a4.89,4.89,0,0,1,4.884-4.884,4.837,4.837,0,0,1,3.5,1.494,1.623,1.623,0,0,0,1.784.376,3.228,3.228,0,0,1,3.6.809,1.629,1.629,0,0,0,2.722-.545,3.244,3.244,0,1,1,5.432,3.3,1.628,1.628,0,0,0,1.138,2.725c2.54.1,4.609,1.55,4.609,3.231C43.906,298.088,41.669,299.579,39.022,299.579Z" transform="translate(-4.836 -281.672)" fill="#d6172c"/>
      </g>
    </g>
    <g id="Group_76" data-name="Group 76" transform="translate(66.697 65.457)">
      <g id="Group_75" data-name="Group 75" transform="translate(0)">
        <path id="Path_124" data-name="Path 124" d="M333.664,321.672h-1.706a10.954,10.954,0,0,0-10.933,9.895l-.7,7.038-3.3,1.978-.526-.526a1.621,1.621,0,0,0-1.151-.477h-.814a5.7,5.7,0,0,0-.764,11.345,5.7,5.7,0,0,0,11.345-.764v-.814a1.624,1.624,0,0,0-.477-1.151l-.526-.526,1.973-3.288,8.573-.78a10.987,10.987,0,0,0-.995-21.93Zm-12.752,27.4.947.947v.14a2.442,2.442,0,0,1-4.884,0v-.814a1.628,1.628,0,0,0-1.628-1.628h-.814a2.442,2.442,0,1,1,0-4.884h.14l.947.947a1.627,1.627,0,0,0,1.989.244l4-2.4.729.729.729.729-2.4,4A1.63,1.63,0,0,0,320.912,349.073Zm13.452-8.714-8.636.785-2.172-2.172.71-7.083a7.706,7.706,0,0,1,7.692-6.961h1.706a7.731,7.731,0,0,1,.7,15.431Z" transform="translate(-308.836 -321.672)" fill="#d6172c"/>
      </g>
    </g>
    <g id="Group_78" data-name="Group 78" transform="translate(13.519 12.848)">
      <g id="Group_77" data-name="Group 77">
        <path id="Path_125" data-name="Path 125" d="M57.653,65.42a3.84,3.84,0,0,1-6.893-2.284l-3.253.145a7.235,7.235,0,0,0,4.229,6.3,6.9,6.9,0,0,0,2.779.578,7.378,7.378,0,0,0,5.636-2.654Z" transform="translate(-47.508 -63.136)" fill="#d6172c"/>
      </g>
    </g>
    <g id="Group_80" data-name="Group 80" transform="translate(84.604 71.971)">
      <g id="Group_79" data-name="Group 79">
        <path id="Path_126" data-name="Path 126" d="M399.125,354.76a5.915,5.915,0,0,0-2.289,4.524l3.256.085a2.69,2.69,0,0,1,.967-1.988,2.656,2.656,0,0,1,3.02.049l1.794-2.717A5.917,5.917,0,0,0,399.125,354.76Z" transform="translate(-396.836 -353.68)" fill="#d6172c"/>
      </g>
    </g>
    <g id="Group_82" data-name="Group 82" transform="translate(19.487 70.341)">
      <g id="Group_81" data-name="Group 81">
        <path id="Path_127" data-name="Path 127" d="M84.3,350.437a11.093,11.093,0,0,0-7.461-3.137v3.256c2.842,0,6.512,2.369,6.512,4.884v6.512H86.6V355.44c0-1.958.475-6.512,4.884-6.512v-3.256A7.419,7.419,0,0,0,84.3,350.437Z" transform="translate(-76.836 -345.672)" fill="#d6172c"/>
      </g>
    </g>
  </g>
</svg>
