<svg height="511pt" fill="#d6172c" viewBox="0 0 511.99993 511" width="511pt" xmlns="http://www.w3.org/2000/svg"><path d="m504.539062 225.824219c-18.992187-30.382813-51.527343-82.441407-62.4375-99.902344 9.726563-31.421875 14.65625-64.003906 14.65625-96.960937v-13.460938c0-8.285156-6.71875-15-15-15-8.285156 0-15 6.714844-15 15v13.460938c0 32.105468-5.148437 63.816406-15.296874 94.257812-.671876 2.003906-1.878907 7.273438 1.507812 12.695312 0 0 43.058594 68.902344 66.132812 105.8125 4.636719 7.421876 3.554688 16.925782-2.636718 23.117188l-29.25 29.25c-2.207032 2.210938-3.675782 5.058594-4.1875 8.140625l-15.695313 94.042969-15.058593 30.113281c-1.949219 3.894531-1.582032 6.054687-1.582032 16.125 0 21.972656-17.878906 39.851563-39.851562 39.851563-30.800782 0-143.128906 4.667968-239.8125-92.007813-5.855469-5.855469-15.355469-5.855469-21.210938.003906-5.859375 5.855469-5.859375 15.355469 0 21.210938 13.492188 13.492187 27.957032 25.730469 43.292969 36.691406l-14.785156 44.355469c-3.160157 9.492187 3.777343 19.746094 14.234375 19.746094 6.28125 0 12.132812-3.972657 14.226562-10.257813l12.332032-36.992187c89.351562 52.3125 170.832031 47.246093 191.722656 47.246093 38.515625 0 69.851562-31.332031 69.851562-69.851562v-5.871094c15.582032-31.171875 15.351563-30.148437 15.863282-33.210937l15.273437-91.523438 25.851563-25.851562c16.125-16.125 18.949218-40.890626 6.859374-60.230469zm0 0"/><path d="m126.398438 288.632812c0-8.28125-6.714844-15-15-15h-14.121094c-30.375 0-67.277344-24.761718-67.277344-64.144531 0-36.679687 29.84375-66.519531 66.523438-66.519531 22.375 0 82.070312 3.292969 135.1875-49.835938l67.027343-67.027343c2.714844-2.710938 4.394531-6.460938 4.394531-10.605469 0-8.285156-6.71875-15-15-15-4.144531 0-7.898437 1.683594-10.613281 4.398438l-67.027343 67.023437c-44.523438 44.535156-95.140626 41.046875-113.972657 41.046875-53.21875 0-96.519531 43.296875-96.519531 96.523438 0 46.933593 40.828125 94.140624 97.277344 94.140624h14.121094c8.285156 0 15-6.714843 15-15zm0 0"/><path d="m95.332031 191.167969c8.285157 0 15-6.71875 15-15 0-8.285157-6.714843-15-15-15-25.988281 0-47.132812 21.144531-47.132812 47.132812s21.144531 47.132813 47.132812 47.132813c8.285157 0 15-6.714844 15-15s-6.714843-15-15-15c-9.445312 0-17.132812-7.6875-17.132812-17.132813 0-9.449219 7.6875-17.132812 17.132812-17.132812zm0 0"/><path d="m193.121094 402.777344c2.042968 7.632812 10.011718 12.84375 18.371094 10.609375 6.792968-1.820313 11.222656-8.027344 11.101562-14.757813l47.910156 27.664063c8.195313 4.730469 16.96875.613281 20.492188-5.492188 4.140625-7.171875 1.683594-16.347656-5.492188-20.488281l-47.910156-27.664062c5.886719-3.257813 9.042969-10.195313 7.222656-16.988282-2.144531-8.003906-10.375-12.75-18.371094-10.605468l-31.035156 8.316406c-8 2.144531-12.75 10.367187-10.605468 18.371094zm0 0"/><path d="m261.730469 126.773438c-5.859375-5.859376-15.355469-5.859376-21.210938 0l-22.71875 22.71875c-5.855469 5.859374-5.855469 15.355468 0 21.210937l22.71875 22.722656c5.859375 5.859375 15.355469 5.859375 21.210938.003907 4.976562-4.972657 5.710937-12.566407 2.238281-18.328126h55.328125c8.285156 0 15-6.71875 15-15 0-8.285156-6.714844-15-15-15h-55.328125c3.472656-5.769531 2.734375-13.355468-2.238281-18.328124zm0 0"/><path d="m227.339844 224.367188c0-8.285157-6.714844-15-15-15h-32.132813c-8.285156 0-15 6.714843-15 15v32.132812c0 8.285156 6.714844 15 15 15 7.03125 0 12.917969-4.847656 14.542969-11.378906l39.117188 39.117187c5.859374 5.859375 15.355468 5.859375 21.214843 0 5.855469-5.855469 5.855469-15.351562 0-21.210937l-39.121093-39.121094c6.53125-1.621094 11.378906-7.507812 11.378906-14.539062zm0 0"/></svg>