<svg xmlns="http://www.w3.org/2000/svg" width="98" height="98" viewBox="0 0 98 98">
  <g id="embryo" transform="translate(0)">
    <g id="Group_84" data-name="Group 84" transform="translate(50.633 33.573)">
      <g id="Group_83" data-name="Group 83">
        <path id="Path_128" data-name="Path 128" d="M272.945,175.673a1.436,1.436,0,0,0-2,.329,2.562,2.562,0,0,1-3.805,0,1.436,1.436,0,1,0-2.332,1.675,5.412,5.412,0,0,0,8.47,0A1.436,1.436,0,0,0,272.945,175.673Z" transform="translate(-264.535 -175.403)" fill="#d6172c"/>
      </g>
    </g>
    <g id="Group_86" data-name="Group 86" transform="translate(0 0)">
      <g id="Group_85" data-name="Group 85">
        <path id="Path_129" data-name="Path 129" d="M84.11,33.339a19.846,19.846,0,1,0-28.347,19.75c-1.038.455-2.3.91-3.6,1.378-.608.219-1.237.448-1.88.686L38.96,45.475a4.086,4.086,0,0,0-5.762,5.76l7.5,8.775a20.018,20.018,0,0,0-3.066,2.805c-4.739-2.238-8.047-5.862-9.327-10.228a15.588,15.588,0,0,1,2.084-12.916c4.084-6.376,2.066-10.411.285-13.971a17.267,17.267,0,0,1-1.746-4.463c-.84-4.417,0-8.186,2.5-11.2C35.591,5,43.585,3.04,48.367,2.878A45.93,45.93,0,0,1,79.441,14.348a1.436,1.436,0,0,0,1.9-2.155A48.995,48.995,0,0,0,12.193,81.338a1.436,1.436,0,1,0,2.155-1.9,46.156,46.156,0,0,1,16.341-72.8A17.048,17.048,0,0,0,29.214,8.2c-3.069,3.708-4.115,8.273-3.108,13.571a19.733,19.733,0,0,0,2,5.211c1.715,3.428,3.07,6.136-.135,11.137A18.417,18.417,0,0,0,25.549,53.4a18.078,18.078,0,0,0,4.908,7.973,8.263,8.263,0,0,0-1.887.3,8.147,8.147,0,0,0-1.7.694l-.033.018c-.242.139-.482.288-.713.444-.033.022-.065.046-.1.07L24.3,64.274c-.367-.568-.726-1.1-1.109-1.639a3.856,3.856,0,0,0-6.953,2.785c.213,1.511,1.155,5.776,1.308,6.434,0,0,.069.261.094.324l.16.4q.01.025.021.05a6.252,6.252,0,0,0,.566,1.007,6.462,6.462,0,0,0,1.659,1.662,6.559,6.559,0,0,0,4.515,1.126,6.737,6.737,0,0,0,2.32-.721l1.341-.708,2.209,6.965a8.761,8.761,0,0,0,10.534,5.868c8.689-2.225,24.9-9.928,35.837-36.529a5.125,5.125,0,0,1,1.236-1.738A19.807,19.807,0,0,0,84.11,33.339Zm-8.05,14.14A7.965,7.965,0,0,0,74.15,50.2C63.689,75.645,48.424,82.951,40.257,85.042a5.91,5.91,0,0,1-7.085-3.954l-2.728-8.6A1.436,1.436,0,0,0,28.4,71.65l-2.853,1.506a3.832,3.832,0,0,1-1.319.413,3.7,3.7,0,0,1-2.55-.635,3.588,3.588,0,0,1-.927-.928,3.433,3.433,0,0,1-.3-.531l-.114-.289c-.194-.833-1.07-4.839-1.258-6.168a.985.985,0,0,1,1.776-.71c.626.875,1.2,1.771,1.862,2.847a1.436,1.436,0,0,0,2.117.366l2.932-2.343c.156-.1.317-.2.479-.3a5.287,5.287,0,0,1,1.093-.445,5.487,5.487,0,0,1,2.4-.127A5.571,5.571,0,0,1,35.622,67a5.913,5.913,0,0,1,.5,1.15l.181.568,1.477,5.211a1.436,1.436,0,0,0,2.762-.783l-1.483-5.233c0-.015-.009-.03-.013-.044l-.185-.579a8.522,8.522,0,0,0-.343-.914,16.156,16.156,0,0,1,4.053-4.18l1.948,2.28a3.416,3.416,0,0,0,1.347.954,32.445,32.445,0,0,0,10.766,1.857h.046a1.436,1.436,0,0,0,.045-2.87,30.089,30.089,0,0,1-9.755-1.638l-.058-.024a.541.541,0,0,1-.212-.149L35.381,49.371a1.214,1.214,0,0,1,.135-1.713,1.223,1.223,0,0,1,1.578,0L48.94,57.779a1.437,1.437,0,0,0,.989.343,26.391,26.391,0,0,1,9.358,1.447,1.436,1.436,0,1,0,.908-2.724,33.066,33.066,0,0,0-3.606-.983A13.154,13.154,0,0,0,59.31,54.4a19.075,19.075,0,0,0,2.387.467,20.469,20.469,0,0,0,4.157.115,1.436,1.436,0,1,0-.216-2.863,17.586,17.586,0,0,1-3.573-.1,16.743,16.743,0,0,1-8.608-3.827,5.6,5.6,0,0,0,3.056-2.7,1.436,1.436,0,0,0-2.575-1.27,3,3,0,0,1-2.225,1.482,3.64,3.64,0,0,1-.635.047A16.728,16.728,0,0,1,47.506,37.4,16.982,16.982,0,1,1,76.06,47.479Z" transform="translate(0 0)" fill="#d6172c"/>
      </g>
    </g>
    <g id="Group_88" data-name="Group 88" transform="translate(16.175 16.175)">
      <g id="Group_87" data-name="Group 87">
        <path id="Path_130" data-name="Path 130" d="M154.137,84.993a1.436,1.436,0,1,0-2.155,1.9,46.123,46.123,0,0,1-65.093,65.093,1.436,1.436,0,0,0-1.9,2.155,48.789,48.789,0,0,0,32.337,12.192q.74,0,1.482-.022a48.995,48.995,0,0,0,35.327-81.316Z" transform="translate(-84.505 -84.506)" fill="#d6172c"/>
      </g>
    </g>
  </g>
</svg>
