<svg xmlns="http://www.w3.org/2000/svg" width="150.971" height="152.794" viewBox="0 0 150.971 152.794">
  <g id="orthopedics" transform="translate(-3.054)">
    <g id="Group_28" data-name="Group 28" transform="translate(3.054)">
      <path id="Path_112" data-name="Path 112" d="M141.215,33.408l.31-.31a2.461,2.461,0,1,0-3.481-3.481L102.922,64.738a4.084,4.084,0,0,0-.566,5.09,10.665,10.665,0,0,1-3.765,14.946c-.033.018-.066.036-.1.055A10.664,10.664,0,0,1,82.859,77.56c0-.006,0-.011,0-.017s0-.009,0-.013l-.947-4.544a2.461,2.461,0,0,0-4.871.49,10.681,10.681,0,0,1-3.411-2.635,11.232,11.232,0,0,1,.143-14.059A10.646,10.646,0,0,1,87.389,54.86a4.083,4.083,0,0,0,5.09-.566l35.54-35.54a2.461,2.461,0,0,0-3.481-3.481l-.2.2a75.487,75.487,0,1,0-58.1,134.49v.364a2.461,2.461,0,0,0,4.923,0v-1.92q.025-.111.041-.226a2.444,2.444,0,0,0-.041-.868V103.009a4.085,4.085,0,0,0-3.2-4,10.666,10.666,0,1,1,8.318-19.254,2.454,2.454,0,0,0,2.139.295A15.562,15.562,0,0,0,93.32,91.078a15.728,15.728,0,0,0,3.907-.5,10.611,10.611,0,0,1-8.106,8.428,4.084,4.084,0,0,0-3.2,4v47.323a2.461,2.461,0,1,0,4.923,0v-.364A75.5,75.5,0,0,0,141.215,33.408ZM70.1,53.5c-4.682,5.215-5.028,13.892-.978,19.576a15.589,15.589,0,0,0-2.894,30.582v41.322A70.567,70.567,0,1,1,120.819,18.992L89.453,50.359A15.557,15.557,0,0,0,70.1,53.5Zm20.742,91.48V103.653a15.526,15.526,0,0,0,11.481-15.43,15.574,15.574,0,0,0,4.53-20.459l30.807-30.806A70.062,70.062,0,0,1,149.1,75.486,70.775,70.775,0,0,1,90.847,144.975Z" transform="translate(-3.054)" fill="#d6172c"/>
    </g>
  </g>
</svg>
