<svg xmlns="http://www.w3.org/2000/svg" width="108.429" height="93.979" viewBox="0 0 108.429 93.979">
  <g id="Page-1" transform="translate(0 0.004)">
    <g id="_029---Baby-Weight" data-name="029---Baby-Weight" transform="translate(0 -0.004)">
      <path id="Shape" d="M104.814,58.832H96.33a19.862,19.862,0,1,0-28.07-27.046l-3.472-4.624,6.549-13.08A9.041,9.041,0,1,0,55.163,6l-7.274,14.56a8.969,8.969,0,0,0-4.648-4.4L21.556,7.124A9.036,9.036,0,0,0,14.6,23.8l7.67,3.2a18.023,18.023,0,0,0-5.956,31.84H3.614A3.614,3.614,0,0,0,0,62.446v1.807a5.421,5.421,0,0,0,5.421,5.421H26.486L21.762,85.42h.027a1.807,1.807,0,0,0-.1.519v3.614a5.421,5.421,0,0,0,5.421,5.421H81.322a5.421,5.421,0,0,0,5.421-5.421V85.939a1.807,1.807,0,0,0-.1-.511h.027L81.943,69.675h21.064a5.421,5.421,0,0,0,5.421-5.421V62.446a3.614,3.614,0,0,0-3.614-3.614ZM84.936,26.3A16.264,16.264,0,1,1,68.671,42.568,16.264,16.264,0,0,1,84.936,26.3ZM12.65,44.375a14.419,14.419,0,0,1,6.585-12.126,14.956,14.956,0,0,1,14.457-.882,1.807,1.807,0,1,0,1.464-3.305,20.719,20.719,0,0,0-4.05-1.3l-15.122-6.3a5.419,5.419,0,1,1,4.175-10L41.844,19.5a5.405,5.405,0,0,1,3.209,6.179L41.44,41.939a1.807,1.807,0,0,0,1.372,2.156,1.853,1.853,0,0,0,.394.043,1.807,1.807,0,0,0,1.764-1.415L47,33.563l7.572,10.089a1.807,1.807,0,0,0,2.891-2.169l-7.59-10.12a5.391,5.391,0,0,1-.515-5.678L58.4,7.614a5.427,5.427,0,1,1,9.708,4.852L61.058,26.544a1.807,1.807,0,0,0,.181,1.9l5.2,6.929a19.767,19.767,0,0,0,7.109,23.464H27.107A14.473,14.473,0,0,1,12.65,44.375ZM83.129,89.553a1.807,1.807,0,0,1-1.807,1.807H27.107A1.807,1.807,0,0,1,25.3,89.553V87.746H83.129Zm-37.95-5.421V80.518H63.25v3.614Zm37.328,0H66.864V80.518A3.614,3.614,0,0,0,63.25,76.9H45.179a3.614,3.614,0,0,0-3.614,3.614v3.614H25.922l4.337-14.457H78.17Zm22.307-19.879a1.807,1.807,0,0,1-1.807,1.807H5.421a1.807,1.807,0,0,1-1.807-1.807V62.446h101.2Z" transform="translate(0 -0.996)" fill="#d6172c"/>
      <path id="Shape-2" data-name="Shape" d="M18.607,33.128a9.153,9.153,0,0,1-5.992-7.321,1.807,1.807,0,0,0-3.614,0,12.733,12.733,0,0,0,8.465,10.751,1.809,1.809,0,1,0,1.142-3.434Z" transform="translate(7.264 17.572)" fill="#d6172c"/>
    </g>
  </g>
</svg>
