<svg xmlns="http://www.w3.org/2000/svg" width="118.062" height="118.38" viewBox="0 0 118.062 118.38">
  <g id="anesthesia_1_" data-name="anesthesia (1)" transform="translate(-0.688)">
    <g id="Group_27" data-name="Group 27" transform="translate(0.688)">
      <path id="Path_111" data-name="Path 111" d="M117.278,21.827l-4.7-4.7a8.063,8.063,0,0,0-10.95-10.95l-4.7-4.7A4.993,4.993,0,0,0,93.369,0a5.692,5.692,0,0,0-4.328,2.247,5.031,5.031,0,0,0,0,7.106l5.021,5.021-8,8L81.044,17.35a4.993,4.993,0,0,0-3.553-1.471,5.689,5.689,0,0,0-4.328,2.246,5.021,5.021,0,0,0,0,7.106l2.022,2.022L23.608,78.831a4.656,4.656,0,0,0,.02,6.6l-3.789,3.789a5.035,5.035,0,0,0,.229,7.335c-.1.091-18.778,18.774-18.872,18.868a1.734,1.734,0,0,0,2.453,2.453C3.741,117.78,22.428,99.095,22.517,99a5.039,5.039,0,0,0,7.335.229l3.789-3.789a4.645,4.645,0,0,0,6.248.335c.282-.231-2.165,2.2,44.21-44.176a1.734,1.734,0,0,0-2.453-2.453L42.753,88.039l-1.981-1.982a1.734,1.734,0,0,0-2.453,2.452L40.3,90.491l-2.516,2.516a1.181,1.181,0,0,1-1.672,0L26.06,82.954a1.184,1.184,0,0,1,0-1.672l2.516-2.516,5.87,5.87A1.734,1.734,0,1,0,36.9,82.184l-5.87-5.87,3.359-3.359,3.493,3.493A1.734,1.734,0,0,0,40.332,74L36.84,70.5l3.654-3.654c3.753,3.753,3.789,4,4.719,4a1.736,1.736,0,0,0,1.226-2.961L42.947,64.4,46.6,60.742l3.493,3.492a1.734,1.734,0,0,0,2.452-2.453l-3.493-3.492,3.654-3.654c3.753,3.753,3.789,4,4.719,4a1.736,1.736,0,0,0,1.226-2.961L55.16,52.182l3.654-3.654c3.746,3.746,3.789,4,4.718,4a1.736,1.736,0,0,0,1.227-2.961l-3.492-3.493,3.654-3.654c3.746,3.746,3.789,4,4.719,4a1.736,1.736,0,0,0,1.227-2.961l-3.493-3.493,3.654-3.654,3.492,3.493a1.734,1.734,0,1,0,2.453-2.453L73.48,33.862,77.637,29.7,89.362,41.428l-3.96,3.96a1.734,1.734,0,0,0,2.453,2.453l3.96-3.96c1.734,1.734,2.8,3.175,5.257,3.175a5.691,5.691,0,0,0,4.328-2.247,5.022,5.022,0,0,0,0-7.106l-4.924-4.924,8-8,4.925,4.924a4.99,4.99,0,0,0,3.553,1.471,5.691,5.691,0,0,0,4.328-2.247A5.019,5.019,0,0,0,117.278,21.827ZM26.08,87.88l5.107,5.108c-5.556,5.557-4.249,5.528-8.9.881a1.555,1.555,0,0,1,0-2.2Zm83.85-73.4-5.664-5.664A4.6,4.6,0,0,1,109.931,14.48ZM98.947,40.158a1.554,1.554,0,0,1,0,2.2l-.775.775a1.555,1.555,0,0,1-2.2,0C74.025,21.185,75.16,22.566,75.16,21.678c0-.788.461-1.105,1.231-1.875a1.555,1.555,0,0,1,2.2,0Zm-4.924-9.83-5.505-5.505,8-8,5.505,5.5Zm20.026-3.073a1.546,1.546,0,0,1-1.1.456c-.911,0,.454,1.1-21.455-20.811a1.558,1.558,0,0,1,0-2.2c.775-.774,1.09-1.231,1.876-1.231.921,0-.611-1.255,21.456,20.811a1.546,1.546,0,0,1,.456,1.1C115.281,26.168,114.819,26.486,114.05,27.255Z" transform="translate(-0.688 0)" fill="#d6172c"/>
    </g>
  </g>
</svg>
