<svg xmlns="http://www.w3.org/2000/svg" width="102.782" height="102.969" viewBox="0 0 102.782 102.969">
  <g id="dental-care" transform="translate(-0.436)">
    <g id="Group_30" data-name="Group 30" transform="translate(48.401 7.028)">
      <g id="Group_29" data-name="Group 29">
        <path id="Path_113" data-name="Path 113" d="M241.566,32.82A17.13,17.13,0,1,0,258.7,49.95,17.13,17.13,0,0,0,241.566,32.82Zm0,30.835a13.7,13.7,0,1,1,13.7-13.7A13.7,13.7,0,0,1,241.566,63.655Z" transform="translate(-224.436 -32.82)" fill="#d6172c"/>
      </g>
    </g>
    <g id="Group_32" data-name="Group 32" transform="translate(41.389 0)">
      <g id="Group_31" data-name="Group 31">
        <path id="Path_114" data-name="Path 114" d="M253.018,52.069,236.77,35.821a24.068,24.068,0,1,0-7.174,7.949L245.457,59.63a1.713,1.713,0,0,0,2.422,0l5.139-5.139A1.713,1.713,0,0,0,253.018,52.069Zm-37.185-7.354A20.556,20.556,0,1,1,236.39,24.158,20.579,20.579,0,0,1,215.833,44.715ZM246.668,56l-14.41-14.41a24.272,24.272,0,0,0,2.578-2.856L249.385,53.28Z" transform="translate(-191.692 0)" fill="#d6172c"/>
      </g>
    </g>
    <g id="Group_34" data-name="Group 34" transform="translate(0.436 10.446)">
      <g id="Group_33" data-name="Group 33" transform="translate(0)">
        <path id="Path_115" data-name="Path 115" d="M77.48,86.438a50.327,50.327,0,0,1-5.9,13.533L70.931,101a1.736,1.736,0,0,0-.218.528l-7.46,32.812a4.533,4.533,0,0,1-8.892-.257l-5.139-30.824a7.779,7.779,0,0,0-15.345,0l-5.139,30.824a4.533,4.533,0,0,1-8.892.257l-7.46-32.824a1.735,1.735,0,0,0-.218-.528l-.644-1.028A50.332,50.332,0,0,1,3.862,73.244a21.029,21.029,0,0,1,29.31-19.328,21.256,21.256,0,0,0,5.893,1.574l.4-3.4a17.781,17.781,0,0,1-4.939-1.321A24.454,24.454,0,0,0,.436,73.244a53.764,53.764,0,0,0,8.181,28.529l.49.785,7.4,32.548a7.959,7.959,0,0,0,15.613-.456l5.139-30.824a4.355,4.355,0,0,1,8.589,0l5.139,30.824a7.959,7.959,0,0,0,15.613.456l7.4-32.548.49-.785a53.858,53.858,0,0,0,6.3-14.439Z" transform="translate(-0.436 -48.783)" fill="#d6172c"/>
      </g>
    </g>
    <g id="Group_36" data-name="Group 36" transform="translate(9.001 20.766)">
      <g id="Group_35" data-name="Group 35">
        <path id="Path_116" data-name="Path 116" d="M50.714,98.659l-.343-1.679c-3.426.687-9.936,4.428-9.936,13.67h3.426c0-8.685,6.9-10.251,7.195-10.314Z" transform="translate(-40.436 -96.98)" fill="#d6172c"/>
      </g>
    </g>
    <g id="Group_38" data-name="Group 38" transform="translate(22.705 20.732)">
      <g id="Group_37" data-name="Group 37">
        <rect id="Rectangle_19" data-name="Rectangle 19" width="3.426" height="3.426" fill="#d6172c"/>
      </g>
    </g>
    <g id="Group_40" data-name="Group 40" transform="translate(56.609 14.376)">
      <g id="Group_39" data-name="Group 39">
        <rect id="Rectangle_20" data-name="Rectangle 20" width="13.324" height="3.426" transform="translate(0 9.421) rotate(-45)" fill="#d6172c"/>
      </g>
    </g>
    <g id="Group_42" data-name="Group 42" transform="translate(60.894 19.523)">
      <g id="Group_41" data-name="Group 41" transform="translate(0 0)">
        <rect id="Rectangle_21" data-name="Rectangle 21" width="16.957" height="3.426" transform="translate(0 11.991) rotate(-45)" fill="#d6172c"/>
      </g>
    </g>
  </g>
</svg>
